<?xml version="1.0" encoding="UTF-8"?>
<svg version="1.1" xmlns="http://www.w3.org/2000/svg" width="3750" height="2500">
<path d="M0 0 C2.25272177 1.43388705 4.37483257 2.9590915 6.5 4.57421875 C7.53125 5.29609375 8.5625 6.01796875 9.625 6.76171875 C17.88788058 13.92288192 23.09840427 25.90357952 24.5 36.57421875 C25.41346666 52.06801867 22.94702438 66.06818412 12.875 78.26171875 C3.19620094 88.56025259 -8.82743237 93.31513302 -22.77734375 93.75 C-23.52975342 93.77070557 -24.28216309 93.79141113 -25.05737305 93.81274414 C-49.63240558 94.57653887 -70.88569602 103.87502176 -88.0859375 121.7578125 C-101.97299375 137.95937812 -108.17020983 157.31167607 -109.09594727 178.45288086 C-109.84487922 193.385458 -115.70279735 205.31170185 -126.5 215.57421875 C-137.64093107 225.12619735 -150.87362348 228.44814772 -165.41015625 227.35546875 C-177.71082185 225.51479361 -186.89584933 220.44003411 -195.5 211.57421875 C-196.08652344 210.99671875 -196.67304687 210.41921875 -197.27734375 209.82421875 C-206.02141426 200.56840875 -208.9059372 188.14596868 -208.86865234 175.78173828 C-208.46576549 161.65449422 -202.09004785 149.09175427 -191.8671875 139.42578125 C-181.23844749 131.11221233 -170.52057144 128.55644911 -157.4375 127.69921875 C-134.01635244 125.84778863 -113.19895058 117.36252687 -96.69140625 100.17578125 C-83.45905311 84.46678447 -75.81700032 65.40713434 -75.26123047 44.86303711 C-74.77315733 28.8842984 -71.05667736 16.50178777 -59.1875 5.26171875 C-43.42374951 -8.03139282 -17.9196925 -10.21982463 0 0 Z " fill="#3EA5AC" transform="translate(1966.5,852.42578125)"/>
<path d="M0 0 C19.60194672 16.14063643 33.6841964 37.96953881 36.375 63.75 C37.6107006 92.93584009 37.6107006 92.93584009 33.375 106.75 C33.08496094 107.70640381 33.08496094 107.70640381 32.7890625 108.68212891 C25.06600554 133.39471935 7.98380607 152.38703437 -14.625 164.75 C-42.40646748 178.52935328 -74.57571017 180.27092456 -104.00878906 170.80224609 C-129.52181582 162.13971011 -148.62681161 144.63691805 -160.765625 120.75 C-172.24847676 96.9423766 -172.68663051 68.48386626 -164.4375 43.625 C-154.75405312 18.53998776 -137.33111487 -0.43792754 -112.9296875 -12.07421875 C-109.20162243 -13.67253606 -105.49300989 -15.04040958 -101.625 -16.25 C-100.96854492 -16.45882813 -100.31208984 -16.66765625 -99.63574219 -16.8828125 C-66.44501178 -26.87640069 -27.79275241 -20.50775806 0 0 Z M-115.625 31.75 C-116.44484375 32.5234375 -116.44484375 32.5234375 -117.28125 33.3125 C-129.24903099 45.53491463 -133.15497083 63.70880628 -133.04516602 80.15942383 C-132.50329491 98.47397479 -125.74322758 113.81460486 -112.625 126.75 C-111.98820312 127.39710938 -111.35140625 128.04421875 -110.6953125 128.7109375 C-97.73220335 141.02858063 -80.76938683 144.37200598 -63.53149414 144.22265625 C-45.09501779 143.68864418 -29.33090003 136.88258445 -16.46875 123.5078125 C-4.47533167 109.43861023 1.71404767 91.20451148 0.375 72.75 C-2.02252092 54.51373848 -8.60936074 37.52003126 -23.1875 25.5234375 C-51.2726659 5.08967897 -91.11255477 6.10621114 -115.625 31.75 Z " fill="#3A4E60" transform="translate(1799.625,1481.25)"/>
<path d="M0 0 C9.68386095 7.50200339 17.28428666 19.4604412 19.3203125 31.69921875 C20.6298593 45.74047055 18.22764352 59.14291435 9.55859375 70.55859375 C-1.22507951 83.16807412 -13.22683134 88.7384052 -29.66772461 90.12402344 C-30.83956299 90.21458008 -32.01140137 90.30513672 -33.21875 90.3984375 C-57.62039998 92.68234365 -77.92299356 101.26907876 -94.46875 119.9609375 C-105.93073675 134.15196871 -113.06754708 151.65244568 -113.75830078 169.9230957 C-114.41553949 186.55874625 -118.52304434 200.31783728 -131.109375 211.99609375 C-141.08506561 220.30366391 -154.0730587 224.87627318 -167.1796875 224.21875 C-182.8144574 222.45783735 -194.40994427 216.42661273 -204.6796875 204.41796875 C-212.98721463 193.00872297 -214.70880124 179.64590192 -213.46875 165.9609375 C-211.29373429 153.93974286 -205.07131781 142.65456111 -195.46875 134.9609375 C-187.29060287 129.2898617 -178.59872061 125.19466557 -168.57421875 124.56640625 C-142.72915066 122.76974901 -120.1691469 115.83287233 -101.73046875 96.6328125 C-94.23227066 87.77483756 -88.15807654 77.99867674 -84.46875 66.9609375 C-84.17484375 66.10242187 -83.8809375 65.24390625 -83.578125 64.359375 C-81.55816377 57.4875461 -81.05838053 50.62917973 -80.53125 43.5234375 C-79.28854933 27.19453369 -75.29600657 13.69543532 -63.09375 2.0703125 C-44.52186958 -12.85351998 -19.48348624 -13.26892597 0 0 Z " fill="#3EA5AC" transform="translate(1971.46875,1124.0390625)"/>
<path d="M0 0 C11.98479995 11.0901337 16.80186372 24.06761751 17.4375 40.1875 C18.28423545 59.72148995 24.99852131 76.56540601 37 92 C37.433125 92.59683594 37.86625 93.19367188 38.3125 93.80859375 C51.08039323 110.26245615 72.64037786 118.82567758 92.61328125 121.64453125 C96.26384958 122.02769355 99.89606308 122.20681482 103.5625 122.375 C117.01586391 123.20460106 128.80967648 128.29539605 138.25 138.0625 C147.73791047 149.50265543 152.26635932 163.19942545 151 178 C148.80569691 192.19439812 143.28036621 204.01348844 131.58203125 212.8203125 C118.53831224 221.07373089 104.15301733 223.89867059 89.03125 220.8828125 C74.06533719 216.52418325 63.47576935 207.60590021 56 194 C51.91207788 185.15896134 51.48560436 176.16173922 50.77441406 166.58837891 C48.95497156 143.46786998 38.72338319 122.64265635 21.05859375 107.37890625 C4.59126429 94.57098334 -12.30947373 89.64356835 -32.9909668 88.11181641 C-47.75436167 86.92873462 -60.56355287 81.5128595 -70.890625 70.69140625 C-80.32381555 58.65535386 -83.45787016 45.02699669 -82 30 C-79.55910134 17.31010071 -73.3221949 5.93358781 -63 -2 C-42.66476348 -14.3903069 -19.33556726 -15.16117193 0 0 Z " fill="#C6658C" transform="translate(1974,992)"/>
<path d="M0 0 C0.9178125 0.48597656 1.835625 0.97195313 2.78125 1.47265625 C15.14198537 8.65478683 22.85362034 18.97178038 26.7734375 32.7109375 C27.73454256 37.34931407 28.06755876 41.9271429 28.28027344 46.65478516 C29.20655408 66.53162178 35.549114 85.04562175 49 100 C49.78117187 100.97710938 50.56234375 101.95421875 51.3671875 102.9609375 C66.69643589 121.38453617 90.34093061 127.03412855 113.02685547 129.19287109 C128.05795437 130.67250072 140.16330514 134.94305854 150.2578125 146.609375 C159.63812692 158.86262705 163.06089611 172.11571531 161.6015625 187.47265625 C160.00964351 196.80709035 156.31553777 204.96440091 150 212 C149.42636719 212.67675781 148.85273437 213.35351562 148.26171875 214.05078125 C141.27626842 221.73043782 131.11130508 227.23672305 120.67016602 228.21923828 C105.44882687 228.9225539 93.40350328 227.4514695 81 218 C79.453125 216.88625 79.453125 216.88625 77.875 215.75 C69.13534457 207.39032959 63.37147004 196.27110984 62.60546875 184.140625 C60.74317695 157.49710312 54.01945724 135.02303799 34.1875 116.1875 C17.42016272 101.88671937 -1.36783003 96.21208623 -22.95849609 94.8215332 C-37.28307282 93.78249155 -49.63437901 88.55215734 -59.6328125 78.05859375 C-69.49544859 65.31528672 -72.25425085 51.83363533 -71 36 C-69.4598595 27.54242846 -66.24232399 20.75585585 -61 14 C-60.2575 12.96875 -59.515 11.9375 -58.75 10.875 C-44.50106873 -4.02160997 -18.69398039 -10.22706395 0 0 Z " fill="#C6658C" transform="translate(1695,985)"/>
<path d="M0 0 C46.2 0 92.4 0 140 0 C140 10.23 140 20.46 140 31 C106.01 31 72.02 31 37 31 C37 46.84 37 62.68 37 79 C67.36 79 97.72 79 129 79 C129 89.23 129 99.46 129 110 C98.64 110 68.28 110 37 110 C37 126.83 37 143.66 37 161 C72.31 161 107.62 161 144 161 C144 171.23 144 181.46 144 192 C96.48 192 48.96 192 0 192 C0 128.64 0 65.28 0 0 Z " fill="#3A4E60" transform="translate(2431,1463)"/>
<path d="M0 0 C11.88 0 23.76 0 36 0 C45.18656052 18.37312104 45.18656052 18.37312104 48.26953125 25.2734375 C48.62812225 26.0684668 48.98671326 26.86349609 49.35617065 27.68261719 C50.51131137 30.24539279 51.66194019 32.81016501 52.8125 35.375 C53.63939596 37.21190163 54.46663345 39.04864955 55.29418945 40.88525391 C57.00887438 44.69118203 58.72210607 48.49775974 60.43457031 52.3046875 C62.91324987 57.81150876 65.40392467 63.31283599 67.8984375 68.8125 C75.69899459 86.01436452 83.45439054 103.23369321 91.09576416 120.50689697 C96.98905655 133.82007765 103.03809597 147.05882637 109.15478516 160.27075195 C112.47954186 167.45734837 115.77748876 174.65577617 118.99609375 181.890625 C119.2994313 182.56220642 119.60276886 183.23378784 119.91529846 183.92572021 C121.18318814 186.80074064 122 188.82019941 122 192 C109.46 192 96.92 192 84 192 C77.4 176.82 70.8 161.64 64 146 C18.46 145.505 18.46 145.505 -28 145 C-28.99 147.97 -29.98 150.94 -31 154 C-31.57272166 155.47742372 -32.16401362 156.94818009 -32.79345703 158.40234375 C-33.11033478 159.1392041 -33.42721252 159.87606445 -33.75369263 160.63525391 C-34.08505219 161.39499512 -34.41641174 162.15473633 -34.7578125 162.9375 C-35.2805928 164.14672119 -35.2805928 164.14672119 -35.81393433 165.38037109 C-36.54326116 167.06507211 -37.27441025 168.74898534 -38.00732422 170.43212891 C-39.13332585 173.01912873 -40.25260719 175.60896219 -41.37109375 178.19921875 C-42.08294226 179.84131542 -42.795168 181.48324862 -43.5078125 183.125 C-43.84322052 183.90093506 -44.17862854 184.67687012 -44.52420044 185.47631836 C-46.88436706 190.88436706 -46.88436706 190.88436706 -48 192 C-50.73894085 192.08858646 -53.4525327 192.11523479 -56.19140625 192.09765625 C-57.01124496 192.0962413 -57.83108368 192.09482635 -58.67576599 192.09336853 C-61.30471382 192.08775289 -63.93357773 192.07519779 -66.5625 192.0625 C-68.34049357 192.05748701 -70.11848846 192.05292376 -71.89648438 192.04882812 C-76.26435545 192.03777839 -80.63216348 192.02050331 -85 192 C-84.33437925 187.03630029 -82.27817183 182.84505812 -80.203125 178.34375 C-79.81831467 177.49779266 -79.43350433 176.65183533 -79.03703308 175.78024292 C-77.77939736 173.01798791 -76.51463453 170.25905679 -75.25 167.5 C-74.37317836 165.57660847 -73.49696209 163.65294086 -72.62133789 161.72900391 C-70.87771172 157.89829446 -69.13214267 154.06848042 -67.38525391 150.23925781 C-64.37334644 143.63085449 -61.40019139 137.0056011 -58.4375 130.375 C-53.40984243 119.13950246 -48.36477421 107.91194529 -43.3125 96.6875 C-42.54434704 94.98063384 -41.77619927 93.27376534 -41.00805664 91.56689453 C-37.52435823 83.82644255 -34.03943016 76.08654789 -30.55128479 68.34809875 C-20.2963019 45.59653099 -10.11852933 22.8126843 0 0 Z M17 39 C16.60109055 39.93816307 16.60109055 39.93816307 16.19412231 40.89527893 C13.63755019 46.907411 11.08006029 52.91915181 8.52163887 58.93049717 C7.20763715 62.01799829 5.8940435 65.10567141 4.58105469 68.19360352 C3.05750652 71.77657355 1.53283269 75.35906253 0.0078125 78.94140625 C-0.49288757 80.11885406 -0.99358765 81.29630188 -1.50946045 82.50942993 C-3.97172801 88.28836443 -6.45561611 94.05616272 -8.98925781 99.80419922 C-9.45655304 100.86646225 -9.92384827 101.92872528 -10.40530396 103.0231781 C-11.28570123 105.01938293 -12.17077844 107.01353245 -13.06124878 109.00526428 C-13.64412155 110.32704933 -13.64412155 110.32704933 -14.23876953 111.67553711 C-14.5805423 112.44240341 -14.92231506 113.20926971 -15.27444458 113.99937439 C-16.1704679 116.1153551 -16.1704679 116.1153551 -16 119 C6.77 119 29.54 119 53 119 C51.73033058 115.19099173 50.49236576 111.65451859 48.91210938 108.00219727 C48.50408081 107.05582901 48.09605225 106.10946075 47.67565918 105.13441467 C47.01636414 103.6157505 47.01636414 103.6157505 46.34375 102.06640625 C45.88198364 100.99744614 45.42021729 99.92848602 44.94445801 98.82713318 C43.46529759 95.40457766 41.98268055 91.98353181 40.5 88.5625 C39.53363147 86.32757024 38.56748362 84.09254504 37.6015625 81.85742188 C31.42137023 67.56278766 25.21504247 53.27951137 19 39 C18.34 39 17.68 39 17 39 Z " fill="#3A4E60" transform="translate(1261,1463)"/>
<path d="M0 0 C2.0558848 0.00314874 4.11030848 -0.02035102 6.16601562 -0.0456543 C30.31414068 -0.16149601 54.23922096 7.87937534 71.87304688 24.75708008 C74.04910139 26.9195977 76.19869103 29.10173436 78.32226562 31.31567383 C76.71745541 35.571468 73.50072352 38.17458152 70.19726562 41.12817383 C69.32581909 41.91949707 69.32581909 41.91949707 68.43676758 42.72680664 C64.11223296 46.64259621 59.749919 50.51672048 55.32226562 54.31567383 C54.17556179 53.46267615 53.02997628 52.60817516 51.88476562 51.75317383 C50.78261719 50.93333008 50.78261719 50.93333008 49.65820312 50.09692383 C48.1401325 48.93933151 46.64348008 47.7528989 45.17382812 46.53442383 C39.61684636 41.96044605 34.06106315 38.8461989 27.32226562 36.31567383 C26.47792969 35.99469727 25.63359375 35.6737207 24.76367188 35.34301758 C11.30887676 31.14449661 -6.47422914 31.44083707 -19.67773438 36.31567383 C-20.65355469 36.64438477 -21.629375 36.9730957 -22.63476562 37.31176758 C-37.92195411 42.98313789 -49.31163647 53.94644516 -56.67773438 68.31567383 C-64.8120098 86.47777733 -64.63297933 106.78658491 -58.05273438 125.44067383 C-51.08494293 141.33677599 -38.53779182 153.22716189 -22.41992188 159.60473633 C-4.44214032 165.74456836 15.65772988 165.470425 33.21679688 158.10083008 C41.2163429 154.15255629 47.71849357 148.21602343 54.32226562 142.31567383 C58.69532917 143.97552277 61.46063448 147.27430454 64.63476562 150.56567383 C69.03151222 155.05120622 73.44504516 159.34584321 78.32226562 163.31567383 C76.53925666 167.13067049 74.4209351 169.4190915 71.32226562 172.31567383 C70.52369141 173.10458008 70.52369141 173.10458008 69.70898438 173.90942383 C50.60520918 191.9086981 23.21577998 197.88530621 -2.29760742 197.29663086 C-30.14169853 196.11893516 -56.30329096 185.82393796 -75.83398438 165.46411133 C-94.40037763 143.82954292 -102.17316466 117.66013132 -100.40405273 89.30786133 C-98.30027189 63.82025361 -87.08624146 40.79640549 -67.81835938 23.79223633 C-55.23508089 13.39431707 -40.56671713 6.05392766 -24.67773438 2.31567383 C-23.50500977 2.03856567 -23.50500977 2.03856567 -22.30859375 1.75585938 C-14.89249796 0.20209619 -7.55130739 -0.02406578 0 0 Z " fill="#3A4E60" transform="translate(1517.677734375,1460.684326171875)"/>
<path d="M0 0 C5.44406318 -0.22311734 10.88544877 -0.38606904 16.33300781 -0.49438477 C18.18406536 -0.53954435 20.0348036 -0.60089139 21.88476562 -0.67895508 C37.05653475 -1.30295526 37.05653475 -1.30295526 41.27124023 1.52270508 C42.90533945 3.92371006 43.90331446 6.31013195 45 9 C46.35663446 11.31835821 47.73660848 13.608275 49.14453125 15.89453125 C49.90592175 17.17671846 50.66414416 18.46079145 51.41943359 19.74658203 C53.90734717 23.97417126 56.40284515 28.19721888 58.90234375 32.41796875 C59.32944641 33.13932007 59.75654907 33.86067139 60.19659424 34.60388184 C64.37035327 41.64293208 68.61465415 48.63812616 72.875 55.625 C80.02455942 67.35377293 87.05234278 79.15059889 94 91 C97.9183231 86.47526976 100.76573135 81.47068759 103.75 76.3125 C108.74568071 67.76428732 113.85531014 59.29599748 119.0625 50.875 C125.49979018 40.45997137 125.49979018 40.45997137 131.82397461 29.97607422 C132.80770112 28.33970317 133.80832738 26.71336079 134.82641602 25.09814453 C137.3421883 21.06474376 139.34775504 17.26051794 140.91796875 12.765625 C143.0111795 7.41040044 144.79832449 2.89929454 150 0 C161.47356343 -2.76582455 174.37948246 -1.06044813 186 0 C184.70425552 4.31861618 183.04600171 7.89193859 180.68359375 11.7265625 C180.01070312 12.82613281 179.3378125 13.92570312 178.64453125 15.05859375 C177.9089023 16.24742562 177.17322384 17.43622685 176.4375 18.625 C175.67123363 19.87330444 174.90562029 21.12200995 174.140625 22.37109375 C172.55183931 24.96412475 170.96026582 27.55541245 169.36669922 30.14550781 C166.07090067 35.5070409 162.80940562 40.88931133 159.54766846 46.27160645 C157.78196566 49.18457888 156.01398609 52.09616857 154.24609375 55.0078125 C153.89518677 55.58583618 153.54427979 56.16385986 153.18273926 56.75939941 C151.06952047 60.23998078 148.95461624 63.71953187 146.83839417 67.19828796 C145.07920599 70.09018689 143.32067384 72.9824843 141.5625 75.875 C141.21847137 76.44096893 140.87444275 77.00693787 140.51998901 77.59005737 C133.87197313 88.53089781 127.28218091 99.50640875 120.71118164 110.49365234 C120.34335571 111.10811722 119.97552979 111.72258209 119.59655762 112.35566711 C118.60031905 114.02004146 117.604939 115.6849296 116.60961914 117.34985352 C115.44943158 119.26003643 114.23970641 121.14044038 113 123 C112.66969338 126.09450608 112.66969338 126.09450608 112.68115234 129.67456055 C112.67110672 130.347995 112.6610611 131.02142944 112.65071106 131.715271 C112.61984396 133.93907831 112.60283449 136.16276504 112.5859375 138.38671875 C112.56722865 139.92943868 112.54765544 141.47214835 112.5272522 143.0148468 C112.47589494 147.07376052 112.43628857 151.13270742 112.39910889 155.19177246 C112.35205498 160.06274505 112.2904418 164.9335525 112.23126221 169.80438995 C112.14300609 177.20286011 112.07327357 184.60129792 112 192 C99.79 192 87.58 192 75 192 C75.22236328 185.19375 75.22236328 185.19375 75.44921875 178.25 C77.2071928 133.58119412 77.2071928 133.58119412 57.38525391 94.90771484 C53.91156474 90.6731562 51.20935211 86.08443108 48.4375 81.375 C47.41416038 79.7253739 46.38674075 78.07827254 45.35546875 76.43359375 C40.85355528 69.18104259 36.4862578 61.84717856 32.10406494 54.52197266 C25.69825927 43.81437094 19.24320436 33.13794369 12.74511719 22.48608398 C0 1.55870236 0 1.55870236 0 0 Z " fill="#3A4E60" transform="translate(2014,1463)"/>
<path d="M0 0 C53.79 0 107.58 0 163 0 C163 10.23 163 20.46 163 31 C142.21 31 121.42 31 100 31 C100 84.13 100 137.26 100 192 C87.79 192 75.58 192 63 192 C63 138.87 63 85.74 63 31 C42.21 31 21.42 31 0 31 C0 20.77 0 10.54 0 0 Z " fill="#3A4E60" transform="translate(2234,1463)"/>
<path d="M0 0 C12.21 0 24.42 0 37 0 C37 53.13 37 106.26 37 161 C70 161 103 161 137 161 C137 171.23 137 181.46 137 192 C91.79 192 46.58 192 0 192 C0 128.64 0 65.28 0 0 Z " fill="#3A4E60" transform="translate(1870,1463)"/>
<path d="M0 0 C1.3865928 1.00503039 2.76286959 2.02455663 4.125 3.0625 C5.15625 3.805 6.1875 4.5475 7.25 5.3125 C16.78192332 14.42999188 22.37097762 26.70919272 23.328125 39.8515625 C23.57961562 55.06674494 19.0144349 67.75737733 8.50390625 78.8046875 C-1.52053442 88.31885286 -14.46227437 92.44851372 -28.18359375 92.203125 C-40.16705383 91.57699356 -52.49573454 87.17875517 -61.359375 78.78515625 C-72.59725625 66.01220359 -76.95775625 52.96130564 -76.0703125 36.17382812 C-74.91472605 23.68193855 -68.44297536 12.69187179 -59.5 4.171875 C-42.65015282 -9.36818077 -18.42585423 -11.80596951 0 0 Z " fill="#3EA5AC" transform="translate(1967.875,1255.9375)"/>
<path d="M0 0 C0.83853516 0.00563965 1.67707031 0.0112793 2.54101562 0.01708984 C15.58627218 0.27302825 27.19743084 5.38837799 36.78125 14.34375 C47.15172124 25.41730404 50.99287094 37.97484143 50.83984375 52.9375 C49.96596743 66.6653025 43.4463061 77.97755251 33.625 87.3125 C23.23681715 96.21908956 11.22453791 99.66881977 -2.375 99.3125 C-16.73962076 97.68158236 -28.79979255 92.12910061 -38.16601562 80.92333984 C-47.25061739 68.81909863 -49.71144953 55.06129727 -48.375 40.3125 C-45.99150333 27.13904235 -39.19856399 16.17636127 -28.375 8.3125 C-19.17488341 2.41970064 -10.84500011 -0.07646555 0 0 Z " fill="#3EA5AC" transform="translate(1806.375,846.6875)"/>
<path d="M0 0 C11.33032473 8.2680748 18.01996454 19.93228725 20.3125 33.6875 C21.31860305 49.18535661 18.24346468 61.68833117 8.5 73.97265625 C-1.66726632 84.96601296 -15.05606641 89.84373543 -29.625 91 C-43.3182003 90.7659282 -55.35476235 85.62565659 -65.4375 76.5 C-75.55915023 65.62409218 -79.32296635 52.96167844 -78.96875 38.39453125 C-77.90888022 24.42485879 -72.04659888 12.18483675 -61.6875 2.6875 C-43.2301165 -11.67456266 -19.648479 -12.59517885 0 0 Z " fill="#C6658C" transform="translate(1702.6875,1123.3125)"/>
<path d="M0 0 C2.52433441 2.00277771 4.73100096 4.10690309 6.890625 6.5 C7.37144531 6.98855469 7.85226563 7.47710938 8.34765625 7.98046875 C17.01536282 17.2187079 20.40416978 29.54730872 20.07421875 42.0078125 C19.01895335 56.33247904 13.23674892 68.65923772 2.76171875 78.5 C-7.60336027 87.10357185 -20.60682907 91.64644258 -34.109375 90.5 C-34.91632812 90.43167969 -35.72328125 90.36335938 -36.5546875 90.29296875 C-49.32305186 88.59920613 -61.22190073 81.87563658 -69.2265625 71.84765625 C-78.15006591 59.41031909 -80.72304236 46.52087736 -79.109375 31.5 C-76.65771212 18.76295853 -69.06142145 6.97630172 -58.38671875 -0.375 C-40.42253743 -11.50120262 -17.5917201 -12.65591374 0 0 Z " fill="#C6658C" transform="translate(2105.109375,989.5)"/>
</svg>
